<?xml version="1.0" encoding="UTF-8" standalone="no"?>
<svg
   version="1.1"
   width="1280"
   height="1024"
   viewBox="0 0 1280 1024"
   xml:space="preserve"
   id="svg4"
   sodipodi:docname="logo_header.svg"
   inkscape:version="1.3.2 (091e20ef0f, 2023-11-25)"
   xmlns:inkscape="http://www.inkscape.org/namespaces/inkscape"
   xmlns:sodipodi="http://sodipodi.sourceforge.net/DTD/sodipodi-0.dtd"
   xmlns="http://www.w3.org/2000/svg"
   xmlns:svg="http://www.w3.org/2000/svg"><sodipodi:namedview
   id="namedview4"
   pagecolor="#ffffff"
   bordercolor="#000000"
   borderopacity="0.25"
   inkscape:showpageshadow="2"
   inkscape:pageopacity="0.0"
   inkscape:pagecheckerboard="0"
   inkscape:deskcolor="#d1d1d1"
   inkscape:zoom="0.4609375"
   inkscape:cx="799.45763"
   inkscape:cy="342.77966"
   inkscape:window-width="1920"
   inkscape:window-height="1163"
   inkscape:window-x="0"
   inkscape:window-y="0"
   inkscape:window-maximized="1"
   inkscape:current-layer="svg4" />
<desc
   id="desc1">Created with Fabric.js 4.4.0</desc>
<defs
   id="defs1">
</defs>
<g
   transform="matrix(1 0 0 1 640 512)"
   id="background-logo">
<rect
   style="stroke: none; stroke-width: 0; stroke-dasharray: none; stroke-linecap: butt; stroke-dashoffset: 0; stroke-linejoin: miter; stroke-miterlimit: 4; fill: rgb(255,255,255); fill-opacity: 0; fill-rule: nonzero; opacity: 1;"
   paint-order="stroke"
   x="-640"
   y="-512"
   rx="0"
   ry="0"
   width="1280"
   height="1024"
   id="rect1" />
</g>

<g
   transform="matrix(2.095055,0,0,2.1131702,640.7012,767.44822)"
   id="text-logo">
<g
   paint-order="stroke"
   id="g4">
		<g
   id="text-logo-path-0">
<g
   id="g5"
   transform="translate(4.9920254e-6,-0.66603398)"><g
     transform="matrix(1.4044129,0,0,1.4044129,-0.49218501,-165.08555)"
     id="logo-logo">
<g
   paint-order="stroke"
   id="g3">
		<g
   transform="scale(0.20288458,-0.20288458)"
   id="g2">
<linearGradient
   id="SVGID_27_2_2_2_2_2_263256"
   gradientUnits="userSpaceOnUse"
   x1="0"
   y1="0"
   x2="0"
   y2="1246">
<stop
   offset="0%"
   style="stop-color:rgb(245,81,95);stop-opacity: 1"
   id="stop1" />
<stop
   offset="100%"
   style="stop-color:rgb(159,4,27);stop-opacity: 1"
   id="stop2" />
</linearGradient>
<path
   style="opacity:1;fill:url(#SVGID_27_2_2_2_2_2_263256);fill-rule:nonzero;stroke:none;stroke-width:1;stroke-linecap:butt;stroke-linejoin:miter;stroke-miterlimit:4;stroke-dasharray:none;stroke-dashoffset:0"
   paint-order="stroke"
   transform="translate(-653.5,-623)"
   d="m 0,0 v 1007 h 2 v 1 h 2 v 1 h 2 v 1 h 2 v 1 h 2 v 1 h 2 v 1 h 2 v 1 h 2 v 1 h 1 v 1 h 2 v 1 h 2 v 1 h 2 v 1 h 2 v 1 h 2 v 1 h 2 v 1 h 2 v 1 h 2 v 1 h 2 v 1 h 2 v 1 h 2 v 1 h 1 v 1 h 2 v 1 h 2 v 1 h 2 v 1 h 2 v 1 h 2 v 1 h 2 v 1 h 2 v 1 h 2 v 1 h 2 v 1 h 2 v 1 h 1 v 1 h 2 v 1 h 2 v 1 h 2 v 1 h 2 v 1 h 2 v 1 h 2 v 1 h 2 v 1 h 2 v 1 h 2 v 1 h 2 v 1 h 2 v 1 h 1 v 1 h 2 v 1 h 2 v 1 h 2 v 1 h 2 v 1 h 2 v 1 h 2 v 1 h 2 v 1 h 2 v 1 h 2 v 1 h 2 v 1 h 1 v 1 h 2 v 1 h 2 v 1 h 2 v 1 h 2 v 1 h 2 v 1 h 2 v 1 h 2 v 1 h 2 v 1 h 2 v 1 h 2 v 1 h 2 v 1 h 1 v 1 h 2 v 1 h 2 v 1 h 2 v 1 h 2 v 1 h 2 v 1 h 2 v 1 h 2 v 1 h 2 v 1 h 2 v 1 h 2 v 1 h 2 v 1 h 1 v 1 h 2 v 1 h 2 v 1 h 2 v 1 h 2 v 1 h 2 v 1 h 2 v 1 h 2 v 1 h 2 v 1 h 2 v 1 h 2 v 1 h 1 v 1 h 2 v 1 h 2 v 1 h 2 v 1 h 2 v 1 h 2 v 1 h 2 v 1 h 2 v 1 h 2 v 1 h 2 v 1 h 2 v 1 h 2 v 1 h 1 v 1 h 2 v 1 h 2 v 1 h 2 v 1 h 2 v 1 h 2 v 1 h 2 v 1 h 2 v 1 h 2 v 1 h 2 v 1 h 2 v 1 h 2 v 1 h 1 v 1 h 2 v 1 h 2 v 1 h 2 v 1 h 2 v 1 h 2 v 1 h 2 v 1 h 2 v 1 h 2 v 1 h 2 v 1 h 2 v 1 h 1 v 1 h 2 v 1 h 2 v 1 h 2 v 1 h 2 v 1 h 2 v 1 h 2 v 1 h 2 v 1 h 2 v 1 h 2 v 1 h 2 v 1 h 2 v 1 h 1 v 1 h 2 v 1 h 2 v 1 h 2 v 1 h 2 v 1 h 2 v 1 h 2 v 1 h 2 v 1 h 2 v 1 h 2 v 1 h 2 v 1 h 1 v 1 h 2 v 1 h 2 v 1 h 2 v 1 h 2 v 1 h 2 v 1 h 2 v 1 h 2 v 1 h 2 v 1 h 2 v 1 h 2 v 1 h 2 v 1 h 1 v 1 h 2 v 1 h 2 v 1 h 2 v 1 h 2 v 1 h 2 v 1 h 2 v 1 h 2 v 1 h 2 v 1 h 2 v 1 h 2 v 1 h 2 v 1 h 1 v 1 h 2 v 1 h 2 v 1 h 2 v 1 h 2 v 1 h 2 v 1 h 2 v 1 h 2 v 1 h 2 v 1 h 2 v 1 h 2 v 1 h 1 v 1 h 2 v 1 h 2 v 1 h 2 v 1 h 2 v 1 h 2 v 1 h 2 v 1 h 2 v 1 h 2 v 1 h 2 v 1 h 2 v 1 h 2 v 1 h 1 v 1 h 2 v 1 h 2 v 1 h 2 v 1 h 2 v 1 h 2 v 1 h 2 v 1 h 2 v 1 h 2 v 1 h 2 v 1 h 2 v 1 h 1 v 1 h 2 v 1 h 2 v 1 h 2 v 1 h 2 v 1 h 2 v 1 h 2 v 1 h 2 v 1 h 2 v 1 h 2 v 1 h 2 v 1 h 2 v 1 h 1 v 1 h 2 v 1 h 2 v 1 h 2 v 1 h 2 v 1 h 2 v 1 h 2 v 1 h 2 v 1 h 2 v 1 h 2 v 1 h 2 v 1 h 2 v 1 h 1 v 1 h 2 v 1 h 2 v 1 h 2 v 1 h 2 v 1 h 2 v 1 h 2 v 1 h 2 v 1 h 2 v 1 h 2 v 1 h 5 v -1 h 2 v -1 h 3 v -1 h 2 v -1 h 2 v -1 h 3 v -1 h 2 v -1 h 2 v -1 h 3 v -1 h 2 v -1 h 2 v -1 h 3 v -1 h 2 v -1 h 2 v -1 h 3 v -1 h 2 v -1 h 2 v -1 h 3 v -1 h 2 v -1 h 2 v -1 h 3 v -1 h 2 v -1 h 2 v -1 h 3 v -1 h 2 v -1 h 2 v -1 h 3 v -1 h 2 v -1 h 2 v -1 h 3 v -1 h 2 v -1 h 2 v -1 h 3 v -1 h 2 v -1 h 2 v -1 h 3 v -1 h 2 v -1 h 2 v -1 h 3 v -1 h 2 v -1 h 2 v -1 h 3 v -1 h 2 v -1 h 2 v -1 h 3 v -1 h 2 v -1 h 2 v -1 h 3 v -1 h 2 v -1 h 2 v -1 h 3 v -1 h 2 v -1 h 2 v -1 h 3 v -1 h 2 v -1 h 2 v -1 h 3 v -1 h 2 v -1 h 2 v -1 h 3 v -1 h 2 v -1 h 2 v -1 h 3 v -1 h 2 v -1 h 2 v -1 h 3 v -1 h 2 v -1 h 2 v -1 h 3 v -1 h 2 v -1 h 2 v -1 h 3 v -1 h 2 v -1 h 2 v -1 h 3 v -1 h 2 v -1 h 2 v -1 h 3 v -1 h 2 v -1 h 2 v -1 h 3 v -1 h 2 v -1 h 2 v -1 h 3 v -1 h 2 v -1 h 2 v -1 h 3 v -1 h 2 v -1 h 2 v -1 h 3 v -1 h 2 v -1 h 2 v -1 h 3 v -1 h 2 v -1 h 2 v -1 h 3 v -1 h 2 v -1 h 2 v -1 h 3 v -1 h 2 v -1 h 2 v -1 h 3 v -1 h 2 v -1 h 2 v -1 h 3 v -1 h 2 v -1 h 2 v -1 h 3 v -1 h 2 v -1 h 2 v -1 h 3 v -1 h 2 v -1 h 2 v -1 h 3 v -1 h 2 v -1 h 2 v -1 h 3 v -1 h 2 v -1 h 2 v -1 h 3 v -1 h 2 v -1 h 2 v -1 h 3 v -1 h 2 v -1 h 2 v -1 h 3 v -1 h 2 v -1 h 2 v -1 h 3 v -1 h 2 v -1 h 2 v -1 h 3 v -1 h 2 v -1 h 2 v -1 h 3 v -1 h 2 v -1 h 2 v -1 h 3 v -1 h 2 v -1 h 2 v -1 h 3 v -1 h 2 v -1 h 2 v -1 h 3 v -1 h 2 v -1 h 2 v -1 h 3 v -1 h 2 v -1 h 2 v -1 h 3 v -1 h 2 v -1 h 2 v -1 h 3 v -1 h 2 v -1 h 2 v -1 h 3 v -1 h 2 v -1 h 2 v -1 h 2 v -1 h 3 v -1 h 2 v -1 h 2 v -1 h 3 v -1 h 2 v -1 h 2 v -1 h 3 v -1 h 2 v -1 h 2 v -1 h 3 v -1 h 2 v -1 h 2 v -1 h 3 v -1 h 2 v -1 h 2 v -1 h 3 v -1 h 2 v -1 h 2 v -1 h 3 v -1 h 2 v -1 h 2 v -1 h 3 v -1 h 2 v -1 h 2 v -1 h 3 v -1 h 2 v -1 h 2 v -1 h 3 v -1 h 2 v -1 h 2 v -1 h 3 v -1 h 2 v -1 h 2 v -1 h 3 v -1 h 2 v -1 h 2 v -1 h 3 v -1 h 2 v -1 h 2 v -1 h 3 v -1 h 2 v -1 h 2 v -1 h 3 v -1 h 2 v -1 h 2 v -1 h 3 v -1 h 2 v -1 h 2 v -1 h 3 v -1 h 2 v -1 h 2 v -1 h 3 v -1 h 2 v -1 h 2 v -1 h 3 v -1 h 2 v -1 h 2 v -1 h 3 v -1 h 2 v -1 h 2 v -1 h 3 v -1 h 2 v -1 h 2 v -1 h 3 v -1 h 2 v -1 h 2 v -1 h 3 v -1 h 2 v -1 h 2 v -1 h 3 v -1 h 2 v -1 h 2 v -1 h 3 v -1 h 2 v -1 h 2 v -1 h 3 v -1 h 2 v -1 h 2 v -1 h 3 v -1 h 2 v -1 h 2 v -1 h 3 v -1 h 2 v -1 h 2 v -1 h 3 v -1 h 2 v -1 h 2 v -1 h 3 v -1 h 2 v -1 h 2 v -1 h 3 v -1 h 2 v -1 h 2 v -1 h 3 v -1 h 2 v -1 h 2 v -1 h 3 v -1 h 2 v -1 h 2 v -1 h 3 v -1 h 2 v -1 h 2 v -1 h 3 v -1 h 2 v -1 h 2 v -1 h 3 v -1 h 2 v -1 h 2 v -1 h 3 v -1 h 2 v -1 h 2 v -1 h 3 v -1 h 2 v -1 h 2 v -1 h 2 v -1 h 3 v -1 h 2 v -1 h 2 v -1 h 3 v -1 h 2 v -1 h 2 v -1 h 3 v -1 h 2 v -1 h 2 v -1 h 3 v -1 h 2 v -1 h 2 v -1 h 3 v -1 h 2 v -1 h 2 v -1 h 3 v -1 h 2 v -1 h 2 v -1 h 3 v -1 h 2 v -1 h 2 v -1 h 3 v -1 h 2 v -1 h 2 v -1 h 3 v -1 h 2 v -1 h 2 v -1 h 3 v -1 h 2 v -1 h 2 v -1 h 3 v -1 h 2 v -1 h 2 v -1 h 3 v -1 h 2 v -1 h 2 v -1 h 3 v -1 h 2 v -1 h 2 v -1 h 3 v -1 h 2 v -1 h 2 v -1 h 3 v -1 h 2 v -1 h 2 v -1 h 3 v -1 h 2 v -1 h 2 v -1 h 3 v -1 h 2 v -1 h 2 v -1 h 3 v -1 h 2 v -1 h 2 v -1 h 3 v -1 h 2 v -1 h 2 v -1 h 3 v -1 h 2 v -1 h 2 v -1 h 3 v -1 h 2 v -1 h 2 v -1 h 3 v -1 h 2 v -1 h 2 v -1 h 3 v -1 h 2 v -1 h 2 v -1 h 3 v -1 h 2 v -1 h 2 v -1 h 3 v -1 h 2 v -1 h 2 v -1 h 3 v -1 h 2 v -1 h 2 v -1 h 3 v -1 h 2 v -1 h 2 v -1 h 3 v -1 h 2 v -1 h 2 v -1 h 3 v -1 h 2 v -1 h 2 v -1 h 3 v -1 h 2 V 0 H 284 v 803 h 2 v 1 h 2 v 1 h 2 v 1 h 2 v 1 h 1 v 1 h 2 v 1 h 2 v 1 h 2 v 1 h 2 v 1 h 2 v 1 h 2 v 1 h 2 v 1 h 2 v 1 h 2 v 1 h 2 v 1 h 1 v 1 h 2 v 1 h 2 v 1 h 2 v 1 h 2 v 1 h 2 v 1 h 2 v 1 h 2 v 1 h 2 v 1 h 2 v 1 h 2 v 1 h 1 v 1 h 2 v 1 h 2 v 1 h 2 v 1 h 2 v 1 h 2 v 1 h 2 v 1 h 2 v 1 h 2 v 1 h 2 v 1 h 2 v 1 h 1 v 1 h 2 v 1 h 2 v 1 h 2 v 1 h 2 v 1 h 2 v 1 h 2 v 1 h 2 v 1 h 2 v 1 h 2 v 1 h 2 v 1 h 1 v 1 h 2 v 1 h 2 v 1 h 2 v 1 h 2 v 1 h 2 v 1 h 2 v 1 h 2 v 1 h 2 v 1 h 2 v 1 h 2 v 1 h 1 v 1 h 2 v 1 h 2 v 1 h 2 v 1 h 2 v 1 h 2 v 1 h 2 v 1 h 2 v 1 h 2 v 1 h 2 v 1 h 2 v 1 h 1 v 1 h 2 v 1 h 2 v 1 h 2 v 1 h 2 v 1 h 2 v 1 h 2 v 1 h 2 v 1 h 2 v 1 h 2 v 1 h 2 v 1 h 1 v 1 h 2 v 1 h 2 v 1 h 2 v 1 h 2 v 1 h 2 v 1 h 2 v 1 h 2 v 1 h 2 v 1 h 2 v 1 h 2 v 1 h 1 V 187 h 644 v 562 h -2 v 1 h -3 v 1 h -2 v 1 h -2 v 1 h -3 v 1 h -2 v 1 h -2 v 1 h -3 v 1 h -2 v 1 h -2 v 1 h -3 v 1 h -2 v 1 h -2 v 1 h -2 v 1 h -3 v 1 h -2 v 1 h -2 v 1 h -3 v 1 h -2 v 1 h -2 v 1 h -3 v 1 h -2 v 1 h -2 v 1 h -3 v 1 h -2 v 1 h -2 v 1 h -3 v 1 h -2 v 1 h -2 v 1 h -3 v 1 h -2 v 1 h -2 v 1 h -3 v 1 h -2 v 1 h -2 v 1 h -3 v 1 h -2 v 1 h -2 v 1 h -3 v 1 h -2 v 1 h -2 v 1 h -2 v 1 h -3 v 1 h -2 v 1 h -2 v 1 h -3 v 1 h -2 v 1 h -2 v 1 h -3 v 1 h -2 v 1 h -2 v 1 h -3 v 1 h -2 v 1 h -2 v 1 h -3 v 1 h -2 v 1 h -2 v 1 h -3 v 1 h -2 v 1 h -2 v 1 h -3 v 1 h -2 v 1 h -2 V 295 H 756 v 604 h -2 v 1 h -3 v 1 h -2 v 1 h -2 v 1 h -3 v 1 h -2 v 1 h -2 v 1 h -3 v 1 h -2 v 1 h -2 v 1 h -3 v 1 h -2 v 1 h -2 v 1 h -3 v 1 h -2 v 1 h -2 v 1 h -3 v 1 h -2 v 1 h -2 v 1 h -3 v 1 h -2 v 1 h -2 v 1 h -3 v 1 h -2 v 1 h -2 v 1 h -3 v 1 h -2 v 1 h -2 v 1 h -3 v 1 h -2 v 1 h -2 v 1 h -3 v 1 h -2 v 1 h -2 v 1 h -2 v 1 h -3 v 1 h -2 v 1 h -2 v 1 h -3 v 1 h -2 v 1 h -2 v 1 h -3 v 1 h -2 v 1 h -2 v 1 h -3 v 1 h -2 v 1 h -2 v 1 h -3 v 1 h -2 v 1 h -2 v 1 h -3 v 1 h -2 v 1 h -2 v 1 h -3 v 1 h -2 v 1 h -2 v 1 h -3 v 1 h -2 v 1 h -2 v 1 h -3 v 1 h -2 v 1 h -2 v 1 h -3 v 1 h -2 v 1 h -2 v 1 h -3 v 1 h -2 v 1 h -2 v 1 h -3 v 1 h -2 v 1 h -2 v 1 h -3 v 1 h -2 v 1 h -2 v 1 h -3 v 1 h -2 v 1 h -2 v 1 h -3 v 1 h -2 v 1 h -2 v 1 h -3 v 1 h -2 v 1 h -2 v 1 h -3 v 1 h -2 v 1 h -2 v 1 h -2 v 1 h -3 v 1 h -2 v 1 h -2 v 1 h -3 v 1 h -2 v 1 h -2 v 1 h -3 v 1 h -2 v 1 h -2 v 1 h -3 v 1 h -2 v 1 h -2 v 1 h -3 v 1 h -2 v 1 h -2 v 1 h -3 v 1 h -2 v 1 h -2 v 1 h -3 v 1 h -2 v 1 h -2 v 1 h -3 v 1 h -2 v 1 h -2 v 1 h -3 v 1 h -2 v 1 h -2 v 1 h -3 v 1 h -2 v 1 h -2 v 1 h -3 v 1 h -2 v 1 h -2 v 1 h -3 v 1 h -2 v 1 h -2 v 1 h -3 v 1 h -2 v 1 h -2 v 1 h -5 v -1 h -2 v -1 h -2 v -1 h -2 v -1 h -1 v -1 h -2 v -1 h -2 v -1 h -2 v -1 h -2 v -1 h -2 v -1 h -2 v -1 h -2 v -1 h -2 v -1 h -2 v -1 h -2 v -1 h -2 v -1 h -1 v -1 h -2 v -1 h -2 v -1 h -2 v -1 h -2 v -1 h -2 v -1 h -2 v -1 h -2 v -1 h -2 v -1 h -2 v -1 h -2 v -1 h -1 v -1 h -2 v -1 h -2 v -1 h -2 v -1 h -2 v -1 h -2 v -1 h -2 v -1 h -2 v -1 h -2 v -1 h -2 v -1 h -2 v -1 h -2 v -1 h -1 v -1 h -2 v -1 h -2 v -1 h -2 v -1 h -2 v -1 h -2 v -1 h -2 v -1 h -2 v -1 h -2 v -1 h -2 v -1 h -2 v -1 h -1 v -1 h -2 v -1 h -2 v -1 h -2 v -1 h -2 v -1 h -2 v -1 h -2 v -1 h -2 v -1 h -2 v -1 h -2 v -1 h -2 v -1 h -2 v -1 h -1 v -1 h -2 v -1 h -2 v -1 h -2 v -1 h -2 v -1 h -2 v -1 h -2 v -1 h -2 v -1 h -2 v -1 h -2 v -1 h -2 v -1 h -1 v -1 h -2 v -1 h -2 v -1 h -2 v -1 h -2 v -1 h -2 v -1 h -2 v -1 h -2 v -1 h -2 v -1 h -2 v -1 h -2 v -1 h -1 v -1 h -2 v -1 h -2 v -1 h -2 v -1 h -2 v -1 h -2 v -1 h -2 v -1 h -2 v -1 h -2 v -1 h -2 v -1 h -2 v -1 h -2 v -1 h -1 v -1 h -2 v -1 h -2 v -1 h -2 v -1 h -2 v -1 h -2 v -1 h -2 v -1 h -2 v -1 h -2 v -1 h -2 v -1 h -2 v -1 h -1 v -1 h -2 v -1 h -2 v -1 h -2 v -1 h -2 v -1 h -2 v -1 h -2 v -1 h -2 v -1 h -2 v -1 h -2 v -1 h -2 v -1 h -2 v -1 h -1 v -1 h -2 v -1 h -2 v -1 h -2 v -1 h -2 v -1 h -2 v -1 h -2 v -1 h -2 v -1 h -2 v -1 h -2 v -1 h -2 v -1 h -1 v -1 h -2 v -1 h -2 v -1 h -2 v -1 h -2 v -1 h -2 v -1 h -2 v -1 h -2 v -1 h -2 v -1 h -2 v -1 h -2 v -1 h -2 v -1 h -1 v -1 h -2 v -1 h -2 v -1 h -2 v -1 h -2 v -1 h -2 v -1 h -2 v -1 h -2 v -1 h -2 v -1 h -2 v -1 h -2 v -1 h -1 v -1 h -2 v -1 h -2 v -1 h -2 v -1 h -2 v -1 h -2 v -1 h -1 V 0"
   stroke-linecap="round"
   id="path2" />
</g>
</g>
</g><path
     style="opacity:1;fill:#33405a;fill-rule:nonzero;stroke:none;stroke-width:0;stroke-linecap:butt;stroke-linejoin:miter;stroke-miterlimit:4;stroke-dasharray:none;stroke-dashoffset:0"
     paint-order="stroke"
     d="m -292.6094,79.493365 v 14.445323 q 0,3.417307 -1.96527,5.382572 -1.96526,1.95275 -4.63151,1.95275 -2.66625,0 -4.59397,-1.95275 -1.91519,-1.965265 -1.91519,-5.382572 v 0 -41.233009 q 0,-3.417307 1.91519,-5.294949 1.92772,-1.877641 4.59397,-1.877641 2.66625,0 4.63151,1.915194 1.96527,1.927712 1.96527,5.257396 v 0 13.105938 l 14.4328,-16.272893 q 3.00423,-3.254579 6.50916,-3.254579 v 0 q 2.59115,0 4.41872,1.752466 1.84009,1.752465 1.84009,4.255987 v 0 q 0,3.166956 -4.16837,7.097485 v 0 l -13.26867,12.843068 13.4314,15.859812 q 3.84291,4.50634 3.84291,7.59819 v 0 q 0,2.503522 -1.62729,4.005635 -1.62729,1.502112 -4.05571,1.502112 v 0 q -3.66766,0 -6.67189,-3.680176 v 0 z m 48.23035,-22.694427 v 13.856994 h 7.84854 q 3.00423,0 4.79425,-2.178064 1.79001,-2.165546 1.79001,-5.007044 v 0 q 0,-2.666251 -1.66484,-4.669068 -1.66484,-2.002818 -4.75669,-2.002818 v 0 z m 13.26867,40.719786 -13.26867,-16.773598 v 13.268667 q 0,3.429825 -1.87764,5.34502 -1.87764,1.915197 -4.46879,1.915197 -2.57863,0 -4.45627,-1.915197 -1.87764,-1.915195 -1.87764,-5.34502 v 0 -40.469434 q 0,-3.417307 1.9152,-5.382572 1.91519,-1.965265 4.59396,-1.965265 v 0 h 15.84729 q 7.93617,0 12.44251,5.094667 4.50634,5.094668 4.50634,12.016906 v 0 q 0,5.758101 -3.25458,10.389616 -3.25458,4.631516 -9.1003,6.221253 v 0 l 7.92364,8.173999 q 3.84291,3.842907 3.84291,7.347838 v 0 q 0,2.503522 -1.79002,4.080741 -1.80253,1.589738 -4.38116,1.589738 v 0 q -3.84291,0 -6.59678,-3.592556 z m 21.69302,-4.168364 V 53.544359 q 0,-3.417307 1.92771,-5.382572 1.91519,-1.965265 4.58144,-1.965265 v 0 h 24.20906 q 3.32969,0 5.13222,1.627289 1.79002,1.62729 1.79002,3.968083 v 0 q 0,2.415899 -1.87764,4.255987 -1.87764,1.840089 -5.0446,1.840089 v 0 h -17.61228 v 9.513384 h 10.10172 q 3.50493,0 5.3325,1.752465 1.84009,1.752465 1.75246,3.918012 -0.0751,2.165546 -2.00282,3.918012 -1.91519,1.752465 -5.08214,1.752465 v 0 h -10.10172 v 9.688631 h 17.61228 q 3.25458,0 5.0446,1.790018 1.79002,1.790019 1.79002,4.218435 v 0 q 0,2.503522 -1.82757,4.331093 -1.84009,1.840085 -5.00705,1.840085 v 0 h -24.03381 -0.17525 q -2.66625,0 -4.58144,-1.915191 -1.92771,-1.927712 -1.92771,-5.345019 z m 61.01083,7.26021 h -10.18934 q -2.66625,0 -4.58144,-1.915191 -1.92771,-1.927712 -1.92771,-5.345019 v 0 -39.806001 q 0,-3.417307 1.92771,-5.382572 1.91519,-1.965265 4.58144,-1.965265 v 0 h 11.94181 q 5.92082,0 10.55234,1.927712 4.63152,1.915194 7.38539,4.794245 2.75387,2.87905 4.54389,6.671886 1.80254,3.805354 2.46597,7.185108 0.66344,3.379755 0.66344,6.54671 v 0 q 0,3.417308 -0.62588,6.75951 -0.62589,3.342202 -2.50353,7.135037 -1.87764,3.792837 -4.79424,6.634334 -2.9166,2.841498 -7.92365,4.756692 -5.00704,1.915194 -11.5162,2.002814 z m 0.16273,-43.060575 -4.16837,-0.08762 v 32.220329 h 3.50494 q 4.41871,0 7.54811,-1.552184 3.12941,-1.539666 4.66907,-4.130811 1.55219,-2.578628 2.21562,-5.29495 0.66343,-2.716321 0.66343,-5.795653 v 0 q 0,-3.842906 -0.91378,-6.759509 -0.91379,-2.929121 -2.3408,-4.431234 -1.41449,-1.502113 -3.07933,-2.541075 -1.67736,-1.038962 -3.30465,-1.214208 -1.62729,-0.162729 -2.9166,-0.375529 -1.28931,-0.200281 -1.87764,-0.03755 z m 59.083124,42.772675 q -1.915194,1.95275 -4.506339,1.95275 -2.591146,0 -4.50634,-1.95275 -1.915195,-1.965266 -1.915195,-5.382574 v 0 -15.446731 l -12.01691,-19.101873 q -3.93053,-6.096076 -3.93053,-8.599598 v 0 q 0,-2.415899 1.92771,-4.343611 1.9152,-1.915194 4.41872,-1.915194 v 0 q 3.75528,0 6.42154,4.506339 v 0 l 9.601005,16.861221 9.601007,-16.861221 q 2.666251,-4.506339 6.421534,-4.506339 v 0 q 2.503522,0 4.418716,1.915194 1.927712,1.927712 1.927712,4.343611 v 0 q 0,2.503522 -3.930529,8.599598 v 0 l -12.016906,19.101873 v 15.446731 q 0,3.417308 -1.915195,5.382574 z m 28.702881,-54.201254 h 30.042264 q 3.680178,0 5.595372,1.702395 1.915195,1.714913 1.915195,4.130812 v 0 q 0,2.503522 -2.040371,4.431234 -2.04037,1.915194 -5.470196,1.915194 v 0 h -8.424351 v 35.712742 q 0,3.342202 -1.965265,5.307467 -1.952747,1.95275 -4.631516,1.95275 -2.666251,0 -4.631516,-1.95275 -1.952747,-1.965265 -1.952747,-5.307467 v 0 -35.712742 h -8.436869 q -3.417308,0 -5.457678,-1.915194 -2.052888,-1.927712 -2.052888,-4.431234 v 0 q 0,-2.415899 1.927712,-4.130812 1.915194,-1.702395 5.582854,-1.702395 z M 33.84988,100.6982 v 0 H 21.995704 q -2.666251,0 -4.593963,-1.965268 -1.915195,-1.965265 -1.915195,-5.382572 v 0 -39.806001 q 0,-3.417307 1.915195,-5.382572 1.927712,-1.965265 4.593963,-1.965265 v 0 h 12.354881 q 5.670482,0 9.763732,1.502113 4.08074,1.502114 6.08356,3.968083 2.00282,2.465969 2.8415,4.919421 0.83868,2.465969 0.83868,5.13222 v 0 q 0,2.841497 -1.05148,5.13222 -1.03896,2.30324 -2.7038,3.555001 -1.67736,1.251761 -2.6287,1.790018 -0.96386,0.538257 -1.87764,0.876233 v 0 q 9.26303,2.503522 9.26303,11.178226 v 0 q 0,3.429825 -0.87623,6.096076 -0.87624,2.666251 -2.17807,4.381164 -1.28931,1.714913 -3.32968,2.916603 -2.05289,1.214208 -3.71773,1.802536 -1.66484,0.575814 -4.13081,0.876234 -2.46597,0.2879 -3.667664,0.32546 -1.214208,0.0501 -3.129403,0.0501 z M 27.753804,90.508862 h 8.098894 q 3.667659,0 5.382569,-1.752466 1.7024,-1.752465 1.7024,-4.331093 v 0 q 0,-2.841497 -2.04037,-4.719139 -2.04037,-1.877641 -6.383983,-1.877641 v 0 h -6.75951 z m 0,-33.797547 v 11.516201 h 7.009862 q 3.592551,0 5.507751,-1.702395 1.91519,-1.714913 1.91519,-4.055706 0,-2.328275 -1.79002,-4.043188 -1.79001,-1.714912 -4.881864,-1.714912 v 0 z m 48.155243,0.08762 v 13.856994 h 7.83603 q 3.00422,0 4.80676,-2.178064 1.79002,-2.165546 1.79002,-5.007044 v 0 q 0,-2.666251 -1.66484,-4.669068 -1.67736,-2.002818 -4.7567,-2.002818 v 0 z m 13.26867,40.719789 -13.26867,-16.773598 v 13.268667 q 0,3.429825 -1.87764,5.34502 -1.87764,1.915197 -4.46878,1.915197 -2.59115,0 -4.46879,-1.915197 -1.87764,-1.915195 -1.87764,-5.34502 v 0 -40.469434 q 0,-3.417307 1.92771,-5.382572 1.91519,-1.965265 4.58144,-1.965265 v 0 h 15.85982 q 7.92364,0 12.429978,5.094667 4.506335,5.094668 4.506335,12.016906 v 0 q 0,5.758101 -3.254575,10.389616 -3.25457,4.631516 -9.087778,6.221253 v 0 l 7.923648,8.173999 q 3.842895,3.842907 3.842895,7.347838 v 0 q 0,2.503522 -1.80253,4.080741 -1.790015,1.589738 -4.381165,1.589738 v 0 q -3.830378,0 -6.584258,-3.592556 z M 128.23265,61.34283 q -3.93052,4.306058 -3.93052,12.066976 0,7.760919 3.93052,12.016906 3.91802,4.255988 9.26304,4.255988 5.3325,0 9.21296,-4.255988 3.88046,-4.255987 3.88046,-12.016906 0,-7.760918 -3.88046,-12.066976 -3.88046,-4.29354 -9.21296,-4.29354 -5.34502,0 -9.26304,4.29354 z m -17.2743,11.979353 v 0 q 0,-7.17259 2.82898,-13.35629 2.8415,-6.171182 9.06275,-10.301993 6.20874,-4.130811 14.64561,-4.130811 8.42435,0 14.59553,4.130811 6.1837,4.130811 9.01268,10.301993 2.8415,6.1837 2.8415,13.35629 v 0 q 0,5.34502 -1.71492,10.26444 -1.70239,4.919421 -4.88186,8.887504 -3.16696,3.968083 -8.33673,6.346429 -5.18229,2.378344 -11.5162,2.378344 v 0 q -12.51761,0 -19.52748,-8.261621 -7.00986,-8.261623 -7.00986,-19.615096 z m 74.60496,6.171182 v 14.445323 q 0,3.417307 -1.96527,5.382572 -1.96526,1.95275 -4.63151,1.95275 -2.66625,0 -4.59396,-1.95275 -1.9152,-1.965265 -1.9152,-5.382572 v 0 -41.233009 q 0,-3.417307 1.9152,-5.294949 1.92771,-1.877641 4.59396,-1.877641 2.66625,0 4.63151,1.915194 1.96527,1.927712 1.96527,5.257396 v 0 13.105938 l 14.4328,-16.272893 q 3.00423,-3.254579 6.50916,-3.254579 v 0 q 2.59115,0 4.41872,1.752466 1.84009,1.752465 1.84009,4.255987 v 0 q 0,3.166956 -4.16837,7.097485 v 0 l -13.26866,12.843068 13.43139,15.859812 q 3.84291,4.50634 3.84291,7.59819 v 0 q 0,2.503522 -1.62729,4.005635 -1.62729,1.502112 -4.05571,1.502112 v 0 q -3.66766,0 -6.67188,-3.680176 v 0 z M 219.43596,93.35036 V 53.544359 q 0,-3.417307 1.92772,-5.382572 1.91519,-1.965265 4.58144,-1.965265 v 0 h 24.20906 q 3.32968,0 5.13222,1.627289 1.79002,1.62729 1.79002,3.968083 v 0 q 0,2.415899 -1.87764,4.255987 -1.87765,1.840089 -5.0446,1.840089 v 0 H 232.5419 v 9.513384 h 10.10171 q 3.50493,0 5.3325,1.752465 1.84009,1.752465 1.75247,3.918012 -0.0751,2.165546 -2.00282,3.918012 -1.91519,1.752465 -5.08215,1.752465 v 0 H 232.5419 v 9.688631 h 17.61228 q 3.25458,0 5.0446,1.790018 1.79001,1.790019 1.79001,4.218435 v 0 q 0,2.503522 -1.82757,4.331093 -1.84009,1.840085 -5.00704,1.840085 v 0 h -24.03381 -0.17525 q -2.66625,0 -4.58144,-1.915191 -1.92772,-1.927712 -1.92772,-5.345019 z M 278.106,56.798938 v 13.856994 h 7.84854 q 3.00423,0 4.79425,-2.178064 1.79002,-2.165546 1.79002,-5.007044 v 0 q 0,-2.666251 -1.66485,-4.669068 -1.66484,-2.002818 -4.75669,-2.002818 v 0 z M 291.37467,97.518724 278.106,80.745126 v 13.268667 q 0,3.429825 -1.87764,5.34502 -1.87764,1.915197 -4.46879,1.915197 -2.57862,0 -4.45627,-1.915197 -1.87764,-1.915195 -1.87764,-5.34502 v 0 -40.469434 q 0,-3.417307 1.9152,-5.382572 1.91519,-1.965265 4.59396,-1.965265 v 0 h 15.8473 q 7.93616,0 12.4425,5.094667 4.50634,5.094668 4.50634,12.016906 v 0 q 0,5.758101 -3.25458,10.389616 -3.25458,4.631516 -9.1003,6.221253 v 0 l 7.92365,8.173999 q 3.8429,3.842907 3.8429,7.347838 v 0 q 0,2.503522 -1.79002,4.080741 -1.80253,1.589738 -4.38116,1.589738 v 0 q -3.84291,0 -6.59678,-3.592556 z"
     stroke-linecap="round"
     id="path3" /></g>
</g>
</g>
</g>
</svg>
